<svg xmlns="http://www.w3.org/2000/svg" width="201" height="155.724" viewBox="0 0 201 155.724">
  <g id="组_3" data-name="组 3" transform="translate(-502.32 -1462.276)">
    <g id="grizzly-bear" transform="translate(506 1371.29)">
      <path id="路径_17" data-name="路径 17" d="M81.818,99.2l-5.683-1.73-2.661-6.48-5.052,4.025H64.252a10.57,10.57,0,0,1-5.475-1.636,16.179,16.179,0,0,0-4.286-1.846,16.555,16.555,0,0,0-11.771,1.277A10.5,10.5,0,0,1,37.956,94L13,92.86c-6.926,0-13,6.485-13,13.881v42H7.38l8.369-23.624H43.042c2.408,15.625,5.559,23.1,5.711,23.624h7.918l6.393-32.932,23.6-1.189L89.6,106.9l-7.3-3.981Z"/>
      <path id="路径_18" data-name="路径 18" d="M99.59,316.014l-2.462,6.949c.553,2.572,1.308,5.672,2.372,9.5l.536,1.922H111.8l-2.625-10.5,5.906-7.875Z" transform="translate(-80.131 -185.65)"/>
      <path id="路径_19" data-name="路径 19" d="M363.468,295.087,360.2,311.906l5.048,5.218h10.84Z" transform="translate(-297.17 -168.385)"/>
    </g>
    <text id="DESIGN" transform="translate(502.32 1556)" font-size="50" font-family="Tahoma-Bold, Tahoma" font-weight="700"><tspan x="0" y="0">DESIGN</tspan></text>
    <text id="PAGE" transform="translate(583.32 1608)" font-size="50" font-family="Tahoma"><tspan x="0" y="0">PAGE</tspan></text>
    <g id="tech" transform="translate(530.708 1568)">
      <path id="路径_20" data-name="路径 20" d="M18.889,16.747a.827.827,0,0,1-.292-.052L2.552,10.783a.844.844,0,0,1,0-1.584L13.532,5.163a.845.845,0,0,1,.583,1.586L5.29,9.991,18.889,15l13.6-5.011L23.663,6.747a.845.845,0,0,1,.583-1.586L35.224,9.2a.845.845,0,0,1,0,1.586L19.181,16.694A.827.827,0,0,1,18.889,16.747Z" transform="translate(1.378 3.52)" stroke="#000" stroke-width="1"/>
      <path id="路径_21" data-name="路径 21" d="M16,26.033a.811.811,0,0,1-.29-.052L6.744,22.687A.845.845,0,0,1,7.326,21.1L16,24.288,24.68,21.1a.845.845,0,0,1,.583,1.586l-8.968,3.293A.827.827,0,0,1,16,26.033Z" transform="translate(4.264 14.5)" stroke="#000" stroke-width="1"/>
      <path id="路径_22" data-name="路径 22" d="M2.844,24.828A.845.845,0,0,1,2,23.984V8.344a.844.844,0,1,1,1.689,0V23.984A.845.845,0,0,1,2.844,24.828Z" transform="translate(1.378 5.167)" stroke="#000" stroke-width="1"/>
      <path id="路径_23" data-name="路径 23" d="M21.844,24.828A.845.845,0,0,1,21,23.984V8.344a.844.844,0,1,1,1.689,0V23.984A.845.845,0,0,1,21.844,24.828Z" transform="translate(14.467 5.167)" stroke="#000" stroke-width="1"/>
      <path id="路径_24" data-name="路径 24" d="M12.344,11.444A.845.845,0,0,1,11.5,10.6V3.844a.844.844,0,1,1,1.689,0V10.6A.845.845,0,0,1,12.344,11.444Z" transform="translate(7.922 2.067)" stroke="#000" stroke-width="1"/>
      <path id="路径_25" data-name="路径 25" d="M22.966,23.809a.848.848,0,0,1-.6-.247l-4.121-4.121a.844.844,0,1,1,1.194-1.194l4.121,4.121a.844.844,0,0,1-.6,1.441Z" transform="translate(12.4 12.401)" stroke="#000" stroke-width="1"/>
      <path id="路径_26" data-name="路径 26" d="M3.4,23.809a.844.844,0,0,1-.6-1.441l4.121-4.121a.844.844,0,1,1,1.194,1.194L4,23.563a.841.841,0,0,1-.6.247Z" transform="translate(1.763 12.401)" stroke="#000" stroke-width="1"/>
      <path id="路径_27" data-name="路径 27" d="M12.344,32.956a.845.845,0,0,1-.844-.844V11.844a.844.844,0,1,1,1.689,0V32.111A.845.845,0,0,1,12.344,32.956Z" transform="translate(7.922 7.578)" stroke="#000" stroke-width="1"/>
      <path id="路径_28" data-name="路径 28" d="M13.378,6.756a3.378,3.378,0,1,1,3.378-3.378A3.381,3.381,0,0,1,13.378,6.756Zm0-5.067a1.689,1.689,0,1,0,1.689,1.689A1.692,1.692,0,0,0,13.378,1.689Z" transform="translate(6.889)" stroke="#000" stroke-width="1"/>
      <path id="路径_29" data-name="路径 29" d="M23.378,26.756a3.378,3.378,0,1,1,3.378-3.378A3.381,3.381,0,0,1,23.378,26.756Zm0-5.067a1.689,1.689,0,1,0,1.689,1.689A1.692,1.692,0,0,0,23.378,21.689Z" transform="translate(13.778 13.778)" stroke="#000" stroke-width="1"/>
      <path id="路径_30" data-name="路径 30" d="M3.378,26.756a3.378,3.378,0,1,1,3.378-3.378A3.381,3.381,0,0,1,3.378,26.756Zm0-5.067a1.689,1.689,0,1,0,1.689,1.689A1.692,1.692,0,0,0,3.378,21.689Z" transform="translate(0 13.778)" stroke="#000" stroke-width="1"/>
    </g>
  </g>
</svg>
